# xmcd CD database file
#
# Track frame offsets:
#	150
#	15191
#	32114
#	45963
#	59506
#	73710
#	86866
#	99896
#	114509
#	128534
#	139267
#	150201
#
# Disc length: 2140 seconds
#
# Revision: 0
# Processed by: cddbd v1.4PL0 Copyright (c) Steve Scherf et al.
# Submitted via: CDex 1.50Beta7
#
DISCID=8c085a0c
DTITLE=Tiao Carreiro e Pardinho - Disco 01
DYEAR=1900
DGENRE=Country
TTITLE0=Amor e saudade
TTITLE1=Teu nome tem sete letras
TTITLE2=Amargurado
TTITLE3=Velho amor
TTITLE4=Chamada a cobrar
TTITLE5=Estrela da madrugada
TTITLE6=Vento lento (veneno lento)
TTITLE7=Carteiro
TTITLE8=Saudade me fez voltar
TTITLE9=Rio de pranto
TTITLE10=Ultima chance
TTITLE11=Saudade
EXTD=
EXTT0=
EXTT1=
EXTT2=
EXTT3=
EXTT4=
EXTT5=
EXTT6=
EXTT7=
EXTT8=
EXTT9=
EXTT10=
EXTT11=
PLAYORDER=
